<?xml version="1.0" encoding="utf-8"?>
<!-- Generator: Adobe Illustrator 19.0.0, SVG Export Plug-In . SVG Version: 6.00 Build 0)  -->
<svg version="1.1" id="Capa_1" xmlns="http://www.w3.org/2000/svg" xmlns:xlink="http://www.w3.org/1999/xlink" x="0px" y="0px"
	 viewBox="-174 153.9 442.2 306.1" style="enable-background:new -174 153.9 442.2 306.1;" xml:space="preserve">
<style type="text/css">
	.st0{fill:url(#XMLID_4_);}
	.st1{fill:url(#XMLID_5_);}
	.st2{fill:url(#SVGID_1_);}
	.st3{fill:url(#SVGID_2_);}
	.st4{fill:url(#SVGID_3_);}
	.st5{fill:url(#SVGID_4_);}
	.st6{fill:url(#SVGID_5_);}
	.st7{fill:url(#SVGID_6_);}
	.st8{fill:url(#SVGID_7_);}
	.st9{fill:url(#SVGID_8_);}
	.st10{fill:url(#SVGID_9_);}
	.st11{fill:url(#SVGID_10_);}
	.st12{fill:url(#SVGID_11_);}
	.st13{fill:url(#SVGID_12_);}
	.st14{fill:url(#SVGID_13_);}
	.st15{fill:url(#SVGID_14_);}
	.st16{fill:url(#SVGID_15_);}
	.st17{fill:url(#SVGID_16_);}
	.st18{fill:url(#SVGID_17_);}
	.st19{fill:url(#SVGID_18_);}
	.st20{fill:url(#SVGID_19_);}
	.st21{fill:none;stroke:url(#SVGID_20_);stroke-miterlimit:10;}
</style>
<linearGradient id="XMLID_4_" gradientUnits="userSpaceOnUse" x1="-92.6279" y1="332.85" x2="59.2946" y2="332.85" gradientTransform="matrix(1 0 0 -1 0 615.8)">
	<stop  offset="0" style="stop-color:#A76821"/>
	<stop  offset="0.5" style="stop-color:#F2E58D"/>
	<stop  offset="1" style="stop-color:#A76821"/>
</linearGradient>
<polygon id="XMLID_1_" class="st0" points="-92.6,189.9 -63.4,220.4 -63.4,343.1 29.3,343.1 29.3,311.3 59.3,343.1 59.3,376 
	-92.6,376 "/>
<linearGradient id="XMLID_5_" gradientUnits="userSpaceOnUse" x1="-67" y1="338.6341" x2="166.0343" y2="338.6341" gradientTransform="matrix(1 0 0 -1 0 615.8)">
	<stop  offset="0" style="stop-color:#A76821"/>
	<stop  offset="0.5" style="stop-color:#F2E58D"/>
	<stop  offset="1" style="stop-color:#A76821"/>
</linearGradient>
<path id="XMLID_3_" class="st1" d="M-35.9,213.5L-67,184.1H91.6c0,0,47,0.6,50.6,53.7c0,0-2.5,54.3-52.5,52.5l76.3,79.9h-43.9
	L10.5,260.4l79.3,0.7c0,0,23.8-5.5,18.3-28.7c0,0-2.5-15.9-17.7-17.7L-35.9,213.5z"/>
<g>
	<linearGradient id="SVGID_1_" gradientUnits="userSpaceOnUse" x1="-166.7559" y1="402.7179" x2="-146.7368" y2="402.7179">
		<stop  offset="0" style="stop-color:#A76821"/>
		<stop  offset="0.5" style="stop-color:#F2E58D"/>
		<stop  offset="1" style="stop-color:#A76821"/>
	</linearGradient>
	<path class="st2" d="M-166.8,388h10.9v1.1c-1.3,0-2.2,0.3-2.7,0.8c-0.5,0.5-0.7,1.4-0.7,2.8v22.8h2.9c4.5,0,7.2-2.4,8-7.1h1.6
		l-1.9,9.2h-1c0-0.7-0.3-1-1-1h-16.1v-1.1c1.3,0,2.2-0.3,2.7-0.8c0.5-0.5,0.7-1.4,0.7-2.8v-19.3c0-1.4-0.3-2.4-0.8-2.8
		c-0.5-0.4-1.4-0.7-2.6-0.7V388z"/>
	<linearGradient id="SVGID_2_" gradientUnits="userSpaceOnUse" x1="-146.1362" y1="406.2989" x2="-122.625" y2="406.2989">
		<stop  offset="0" style="stop-color:#A76821"/>
		<stop  offset="0.5" style="stop-color:#F2E58D"/>
		<stop  offset="1" style="stop-color:#A76821"/>
	</linearGradient>
	<path class="st3" d="M-146.1,396.8l7.6-1.4v0.9c-0.6,0.2-0.9,0.7-0.9,1.5v13.8c0,0.9,0.2,1.6,0.6,2.1s0.9,0.8,1.6,0.8
		c1.7,0,3.4-1.3,5.1-3.8c1.7-2.6,2.5-5.6,2.5-9.1c0-1.3-0.2-2.3-0.5-3s-1-1-1.8-1c-0.3,0-0.7,0.1-1.3,0.2v-1.1l7.7-1.4v0.9
		c-0.7,0.1-1,0.6-1,1.5v14.3c0,1.4,0.5,2.1,1.5,2.1c0.6,0,1.4-0.2,2.3-0.7v1.1l-6.1,2.4h-1.1v-7.4c-2.3,3.2-4.2,5.2-5.5,6
		s-2.6,1.3-3.8,1.3c-2.4,0-3.7-1.7-3.7-5.2v-12.2c0-1.3-0.7-1.9-2.1-1.9c-0.3,0-0.7,0-1.2,0.1V396.8z"/>
	<linearGradient id="SVGID_3_" gradientUnits="userSpaceOnUse" x1="-120.3784" y1="401.294" x2="-110.1689" y2="401.294">
		<stop  offset="0" style="stop-color:#A76821"/>
		<stop  offset="0.5" style="stop-color:#F2E58D"/>
		<stop  offset="1" style="stop-color:#A76821"/>
	</linearGradient>
	<path class="st4" d="M-120.4,415.4c1.1,0,2-0.3,2.6-0.7c0.6-0.5,0.8-1.4,0.8-2.7v-12.2c0-0.9-0.5-1.4-1.6-1.4
		c-0.4,0-0.8,0.1-1.3,0.3c-0.2,0.1-0.4,0.2-0.5,0.2v-1.1l5.7-2.2h1.1v16.5c0,1.3,0.3,2.2,0.8,2.7c0.5,0.5,1.4,0.7,2.6,0.8v1.1h-10.2
		V415.4z M-115.3,386.2c0.6,0,1.2,0.2,1.6,0.6c0.4,0.4,0.6,0.9,0.6,1.5s-0.2,1.1-0.6,1.5s-0.9,0.6-1.5,0.6c-0.6,0-1.1-0.2-1.5-0.6
		c-0.4-0.4-0.6-0.9-0.6-1.5c0-0.6,0.2-1.1,0.6-1.5S-115.8,386.2-115.3,386.2z"/>
	<linearGradient id="SVGID_4_" gradientUnits="userSpaceOnUse" x1="-107.522" y1="406.2433" x2="-93.9087" y2="406.2433">
		<stop  offset="0" style="stop-color:#A76821"/>
		<stop  offset="0.5" style="stop-color:#F2E58D"/>
		<stop  offset="1" style="stop-color:#A76821"/>
	</linearGradient>
	<path class="st5" d="M-106,409.6c0.1,1.9,0.7,3.4,1.7,4.5c1,1.1,2.2,1.6,3.5,1.6c1.1,0,2.1-0.3,2.8-1c0.7-0.7,1.1-1.6,1.1-2.6
		c0-0.9-0.3-1.8-0.8-2.4c-0.6-0.6-1.7-1.5-3.3-2.5c-1.2-0.7-2.2-1.4-3.2-2.1c-1-0.6-1.6-1.3-2-2c-0.4-0.7-0.6-1.3-0.6-2
		c0-1.4,0.7-2.7,2-3.8c1.3-1.1,3.1-1.7,5.3-1.7c1.3,0,2.8,0.3,4.4,0.9v5.8h-1.6c0-1.6-0.5-3-1.4-4c-0.9-1-1.9-1.5-3.1-1.5
		c-0.8,0-1.5,0.3-1.9,0.8c-0.5,0.5-0.7,1.1-0.7,1.9c0,0.8,0.3,1.5,0.8,2.1c0.5,0.6,1.6,1.4,3.1,2.4c2.7,1.7,4.4,2.9,5.1,3.6
		c0.7,0.7,1,1.7,1,2.8c0,1.9-0.8,3.5-2.5,4.8c-1.6,1.4-3.5,2-5.7,2c-1.6,0-3.4-0.4-5.5-1.3v-6.2H-106z"/>
	<linearGradient id="SVGID_5_" gradientUnits="userSpaceOnUse" x1="-80.0962" y1="402.1949" x2="-55.6064" y2="402.1949">
		<stop  offset="0" style="stop-color:#A76821"/>
		<stop  offset="0.5" style="stop-color:#F2E58D"/>
		<stop  offset="1" style="stop-color:#A76821"/>
	</linearGradient>
	<path class="st6" d="M-80.1,388h14.1c2.1,0,3.7,0.4,4.7,1.2s1.6,2,1.6,3.7c0,1.8-0.6,3.5-1.8,5.1c-1.2,1.6-2.9,3-5.3,4.4l5,7.7
		c2.2,3.4,4.3,5.2,6.2,5.3v1.1h-5.3c-1.1,0-2-0.6-2.8-1.9l-8.8-13.7v11c0,2.3,1.1,3.4,3.4,3.5v1.1h-10.9v-1.1c1.3,0,2.2-0.3,2.7-0.8
		c0.5-0.5,0.7-1.4,0.7-2.8v-19.3c0-1.4-0.3-2.4-0.8-2.8c-0.5-0.4-1.4-0.7-2.6-0.7V388z M-72.6,390.1v9.3c1.7,1.3,3.2,1.9,4.5,1.9
		c1.3,0,2.3-0.4,2.9-1.3s1-2.2,1-3.9c0-2.1-0.5-3.8-1.4-5.1c-1-1.3-2.1-1.9-3.5-1.9C-70.4,389-71.5,389.4-72.6,390.1z"/>
	<linearGradient id="SVGID_6_" gradientUnits="userSpaceOnUse" x1="-55.7397" y1="406.2657" x2="-35.3647" y2="406.2657">
		<stop  offset="0" style="stop-color:#A76821"/>
		<stop  offset="0.5" style="stop-color:#F2E58D"/>
		<stop  offset="1" style="stop-color:#A76821"/>
	</linearGradient>
	<path class="st7" d="M-44.6,395.5c2.8,0,5,0.9,6.7,2.6c1.7,1.8,2.5,4.1,2.5,7c0,3.5-1.2,6.3-3.5,8.6c-2.3,2.2-4.9,3.4-7.7,3.4
		c-2.8,0-5-0.9-6.7-2.7s-2.4-4.1-2.4-7c0-3.4,1.2-6.3,3.5-8.5C-49.9,396.6-47.4,395.5-44.6,395.5z M-46.5,397.2
		c-2,0-3.6,0.7-4.6,2.2s-1.6,3.2-1.6,5.4c0,2.7,0.8,5.1,2.5,7.2c1.7,2.1,3.6,3.1,5.9,3.1c1.7,0,3.1-0.7,4.2-2.1
		c1.1-1.4,1.7-3.2,1.7-5.4c0-2.1-0.5-3.9-1.4-5.5s-2-2.9-3.2-3.6C-44.1,397.6-45.3,397.2-46.5,397.2z"/>
	<linearGradient id="SVGID_7_" gradientUnits="userSpaceOnUse" x1="-32.54" y1="406.2433" x2="-18.9268" y2="406.2433">
		<stop  offset="0" style="stop-color:#A76821"/>
		<stop  offset="0.5" style="stop-color:#F2E58D"/>
		<stop  offset="1" style="stop-color:#A76821"/>
	</linearGradient>
	<path class="st8" d="M-31,409.6c0.1,1.9,0.7,3.4,1.7,4.5c1,1.1,2.2,1.6,3.5,1.6c1.1,0,2.1-0.3,2.8-1c0.7-0.7,1.1-1.6,1.1-2.6
		c0-0.9-0.3-1.8-0.8-2.4c-0.6-0.6-1.7-1.5-3.3-2.5c-1.2-0.7-2.2-1.4-3.2-2.1c-1-0.6-1.6-1.3-2-2c-0.4-0.7-0.6-1.3-0.6-2
		c0-1.4,0.7-2.7,2-3.8c1.3-1.1,3.1-1.7,5.3-1.7c1.3,0,2.8,0.3,4.4,0.9v5.8h-1.6c0-1.6-0.5-3-1.4-4c-0.9-1-1.9-1.5-3.1-1.5
		c-0.8,0-1.5,0.3-1.9,0.8c-0.5,0.5-0.7,1.1-0.7,1.9c0,0.8,0.3,1.5,0.8,2.1c0.5,0.6,1.6,1.4,3.1,2.4c2.7,1.7,4.4,2.9,5.1,3.6
		c0.7,0.7,1,1.7,1,2.8c0,1.9-0.8,3.5-2.5,4.8c-1.6,1.4-3.5,2-5.7,2c-1.6,0-3.4-0.4-5.5-1.3v-6.2H-31z"/>
	<linearGradient id="SVGID_8_" gradientUnits="userSpaceOnUse" x1="-16.458" y1="406.2433" x2="3.3384" y2="406.2433">
		<stop  offset="0" style="stop-color:#A76821"/>
		<stop  offset="0.5" style="stop-color:#F2E58D"/>
		<stop  offset="1" style="stop-color:#A76821"/>
	</linearGradient>
	<path class="st9" d="M-14.3,398.8c3.4-2.3,6.6-3.4,9.6-3.4c1.4,0,2.4,0.3,3.1,0.9c0.6,0.6,0.9,1.7,0.9,3.2v13.9c0,0.7,0.3,1,0.9,1
		c0.6,0,1.6-0.7,3.1-2v1.4c-2.3,2.2-4.1,3.3-5.5,3.3c-1.3,0-1.9-0.7-1.9-2.1v-3.3c-1.9,1.9-3.4,3.3-4.7,4.1
		c-1.3,0.9-2.5,1.3-3.6,1.3c-1.1,0-2.1-0.4-2.8-1.3c-0.8-0.9-1.2-1.9-1.2-3.2c0-3.2,4.1-6.7,12.4-10.4v-2.7c0-0.8-0.2-1.5-0.7-2
		c-0.5-0.5-1.2-0.8-2-0.8c-1.5,0-2.8,0.7-3.9,2.1c-1.1,1.4-1.8,3.2-2,5.3h-1.5V398.8z M-3.8,404c-2.8,0.6-5,1.5-6.7,2.9
		c-1.7,1.4-2.6,2.8-2.6,4.2c0,0.9,0.3,1.7,0.9,2.2c0.6,0.5,1.3,0.8,2.2,0.8c1.7,0,3.2-0.9,4.3-2.7C-4.5,409.6-3.9,407.1-3.8,404z"/>
	<linearGradient id="SVGID_9_" gradientUnits="userSpaceOnUse" x1="4.918" y1="400.6715" x2="15.1499" y2="400.6715">
		<stop  offset="0" style="stop-color:#A76821"/>
		<stop  offset="0.5" style="stop-color:#F2E58D"/>
		<stop  offset="1" style="stop-color:#A76821"/>
	</linearGradient>
	<path class="st10" d="M12.7,385.8c-0.6,0.3-1,0.9-1,1.6v24.4c0,1.3,0.3,2.2,0.8,2.7c0.5,0.5,1.4,0.7,2.6,0.8v1.1H4.9v-1.1
		c1.2,0,2.1-0.3,2.6-0.8s0.8-1.4,0.8-2.7v-21.2c0-1.4-0.6-2-1.7-2c-0.5,0-1.1,0.1-1.7,0.4V388l7.8-3V385.8z"/>
	<linearGradient id="SVGID_10_" gradientUnits="userSpaceOnUse" x1="16.9292" y1="406.2657" x2="34.9907" y2="406.2657">
		<stop  offset="0" style="stop-color:#A76821"/>
		<stop  offset="0.5" style="stop-color:#F2E58D"/>
		<stop  offset="1" style="stop-color:#A76821"/>
	</linearGradient>
	<path class="st11" d="M35,410.8c-3.3,4.2-6.5,6.2-9.7,6.2c-2.2,0-4.2-1-5.8-2.9c-1.7-1.9-2.5-4.2-2.5-6.8c0-3,1-5.8,3-8.2
		c2-2.4,4.4-3.7,7.1-3.7c2.2,0,3.9,0.8,5.2,2.3c1.3,1.6,2,3.5,2,5.7H20c0,0.6,0,1,0,1.3c0,2.6,0.7,4.8,2.1,6.6
		c1.4,1.8,3.1,2.6,5.2,2.6c2.6,0,5.2-1.5,7.8-4.6V410.8z M30.7,402.4c-0.2-1.8-0.7-3.1-1.7-4.1c-0.9-1-2-1.4-3.3-1.4
		c-1.3,0-2.5,0.5-3.6,1.6c-1.1,1-1.7,2.4-1.9,3.9H30.7z"/>
	<linearGradient id="SVGID_11_" gradientUnits="userSpaceOnUse" x1="37.7041" y1="406.2433" x2="51.3164" y2="406.2433">
		<stop  offset="0" style="stop-color:#A76821"/>
		<stop  offset="0.5" style="stop-color:#F2E58D"/>
		<stop  offset="1" style="stop-color:#A76821"/>
	</linearGradient>
	<path class="st12" d="M39.2,409.6c0.1,1.9,0.7,3.4,1.7,4.5c1,1.1,2.2,1.6,3.5,1.6c1.1,0,2.1-0.3,2.8-1s1.1-1.6,1.1-2.6
		c0-0.9-0.3-1.8-0.8-2.4c-0.6-0.6-1.7-1.5-3.3-2.5c-1.2-0.7-2.2-1.4-3.2-2.1c-1-0.6-1.6-1.3-2-2c-0.4-0.7-0.6-1.3-0.6-2
		c0-1.4,0.7-2.7,2-3.8c1.3-1.1,3.1-1.7,5.3-1.7c1.3,0,2.8,0.3,4.4,0.9v5.8h-1.6c0-1.6-0.5-3-1.4-4s-1.9-1.5-3.1-1.5
		c-0.8,0-1.5,0.3-1.9,0.8s-0.7,1.1-0.7,1.9c0,0.8,0.3,1.5,0.8,2.1c0.5,0.6,1.6,1.4,3.1,2.4c2.7,1.7,4.4,2.9,5.1,3.6
		c0.7,0.7,1,1.7,1,2.8c0,1.9-0.8,3.5-2.5,4.8s-3.5,2-5.7,2c-1.6,0-3.4-0.4-5.5-1.3v-6.2H39.2z"/>
	<linearGradient id="SVGID_12_" gradientUnits="userSpaceOnUse" x1="65.5752" y1="402.1954" x2="90.6875" y2="402.1954">
		<stop  offset="0" style="stop-color:#A76821"/>
		<stop  offset="0.5" style="stop-color:#F2E58D"/>
		<stop  offset="1" style="stop-color:#A76821"/>
	</linearGradient>
	<path class="st13" d="M90.7,411c-4.7,4-9,6.1-12.8,6.1c-3.2,0-6-1.2-8.5-3.6c-2.5-2.4-3.8-5.7-3.8-10c0-3,0.7-5.6,2-7.9
		c1.3-2.3,3.2-4.3,5.5-5.9s5.3-2.4,8.6-2.4c2.9,0,5.7,0.5,8.3,1.4v6.7h-1.6c-0.2-2.1-1.1-3.7-2.8-4.9s-3.6-1.8-5.9-1.8
		c-3.2,0-5.7,1.2-7.6,3.5c-1.8,2.4-2.8,5.2-2.8,8.7c0,3.7,1,6.8,3.1,9.2c2.1,2.4,4.8,3.7,8,3.7c3.3,0,6.6-1.4,10.1-4.2V411z"/>
	<linearGradient id="SVGID_13_" gradientUnits="userSpaceOnUse" x1="92.8232" y1="406.2657" x2="113.1973" y2="406.2657">
		<stop  offset="0" style="stop-color:#A76821"/>
		<stop  offset="0.5" style="stop-color:#F2E58D"/>
		<stop  offset="1" style="stop-color:#A76821"/>
	</linearGradient>
	<path class="st14" d="M103.9,395.5c2.8,0,5,0.9,6.7,2.6c1.7,1.8,2.5,4.1,2.5,7c0,3.5-1.2,6.3-3.5,8.6c-2.3,2.2-4.9,3.4-7.7,3.4
		s-5-0.9-6.7-2.7s-2.4-4.1-2.4-7c0-3.4,1.2-6.3,3.5-8.5C98.6,396.6,101.2,395.5,103.9,395.5z M102.1,397.2c-2,0-3.6,0.7-4.6,2.2
		c-1.1,1.4-1.6,3.2-1.6,5.4c0,2.7,0.8,5.1,2.5,7.2c1.7,2.1,3.6,3.1,5.9,3.1c1.7,0,3.1-0.7,4.2-2.1c1.1-1.4,1.7-3.2,1.7-5.4
		c0-2.1-0.5-3.9-1.4-5.5c-0.9-1.6-2-2.9-3.2-3.6C104.4,397.6,103.3,397.2,102.1,397.2z"/>
	<linearGradient id="SVGID_14_" gradientUnits="userSpaceOnUse" x1="115.334" y1="405.8985" x2="149.9668" y2="405.8985">
		<stop  offset="0" style="stop-color:#A76821"/>
		<stop  offset="0.5" style="stop-color:#F2E58D"/>
		<stop  offset="1" style="stop-color:#A76821"/>
	</linearGradient>
	<path class="st15" d="M134.3,402c2.3-2.9,4-4.7,5.2-5.5c1.2-0.8,2.3-1.1,3.4-1.1c1.1,0,1.9,0.4,2.6,1.1c0.7,0.7,1,1.7,1,2.9v12.5
		c0,1.3,0.3,2.2,0.8,2.7c0.5,0.5,1.4,0.7,2.6,0.8v1.1h-7.8v-1.1c0.6,0,1-0.4,1-1v-12.8c0-1.2-0.2-2.1-0.6-2.7
		c-0.4-0.6-1-0.9-1.8-0.9c-1.7,0-3.3,1.3-4.7,3.8s-2.1,5.4-2.1,8.7c0,1.9,0.3,3.1,0.8,3.8s1.5,1.1,2.8,1.1v1.1H130v-1.1
		c0.6,0,0.9-0.3,0.9-0.8v-13.7c0-0.8-0.2-1.5-0.6-2s-1-0.8-1.6-0.8c-1.8,0-3.4,1.3-4.7,3.8s-2.1,5.4-2.1,8.7c0,1.8,0.3,3.1,0.8,3.8
		c0.5,0.7,1.5,1.1,2.8,1.1v1.1h-10.1v-1.1c1.2,0,2.1-0.3,2.6-0.8c0.5-0.5,0.8-1.4,0.8-2.7v-11.7c0-1.2-0.5-1.8-1.5-1.8
		c-0.5,0-1.1,0.2-1.9,0.5v-1.1l5.7-2.3h1.1v6.8c2.2-3,3.9-4.9,5.1-5.7c1.2-0.8,2.3-1.2,3.4-1.2c1.2,0,2.1,0.4,2.7,1.3
		c0.6,0.9,0.9,2.2,0.9,3.9C134.3,401,134.3,401.5,134.3,402z"/>
	<linearGradient id="SVGID_15_" gradientUnits="userSpaceOnUse" x1="151.5684" y1="410.6471" x2="173.9453" y2="410.6471">
		<stop  offset="0" style="stop-color:#A76821"/>
		<stop  offset="0.5" style="stop-color:#F2E58D"/>
		<stop  offset="1" style="stop-color:#A76821"/>
	</linearGradient>
	<path class="st16" d="M158.3,416v5.2c0,1.3,0.3,2.2,0.8,2.7c0.5,0.5,1.4,0.8,2.6,0.8v1.1h-10.1v-1.1c1.2,0,2.1-0.3,2.6-0.8
		s0.8-1.4,0.8-2.7V400c0-1.1-0.4-1.7-1.3-1.7c-0.3,0-1,0.2-2.1,0.6v-1.1l5.7-2.3h1v7.2c2.1-2.9,3.8-4.8,5.1-5.8c1.3-1,2.7-1.5,4-1.5
		c1.8,0,3.3,0.8,4.6,2.3c1.3,1.5,1.9,3.5,1.9,6c0,3.5-1.2,6.6-3.5,9.3c-2.3,2.7-4.9,4.1-7.8,4.1c-0.7,0-1.4-0.1-2.1-0.3
		C159.8,416.6,159,416.4,158.3,416z M158.3,413.2c1,0.8,2,1.5,2.9,1.9c0.9,0.4,1.8,0.6,2.6,0.6c1.9,0,3.5-0.9,4.8-2.8
		c1.3-1.9,2-4.3,2-7.2c0-2.3-0.4-4.1-1.3-5.6c-0.9-1.4-2-2.2-3.5-2.2c-1.9,0-3.7,1.3-5.3,3.8s-2.4,5.4-2.4,8.6
		C158,411.1,158.1,412,158.3,413.2z"/>
	<linearGradient id="SVGID_16_" gradientUnits="userSpaceOnUse" x1="176.2354" y1="406.2433" x2="196.0322" y2="406.2433">
		<stop  offset="0" style="stop-color:#A76821"/>
		<stop  offset="0.5" style="stop-color:#F2E58D"/>
		<stop  offset="1" style="stop-color:#A76821"/>
	</linearGradient>
	<path class="st17" d="M178.4,398.8c3.4-2.3,6.6-3.4,9.6-3.4c1.4,0,2.4,0.3,3.1,0.9c0.6,0.6,0.9,1.7,0.9,3.2v13.9c0,0.7,0.3,1,0.9,1
		c0.6,0,1.6-0.7,3.1-2v1.4c-2.3,2.2-4.1,3.3-5.5,3.3c-1.3,0-1.9-0.7-1.9-2.1v-3.3c-1.9,1.9-3.4,3.3-4.7,4.1
		c-1.3,0.9-2.5,1.3-3.6,1.3c-1.1,0-2.1-0.4-2.8-1.3s-1.2-1.9-1.2-3.2c0-3.2,4.1-6.7,12.4-10.4v-2.7c0-0.8-0.2-1.5-0.7-2
		c-0.5-0.5-1.2-0.8-2-0.8c-1.5,0-2.8,0.7-3.9,2.1c-1.1,1.4-1.8,3.2-2,5.3h-1.5V398.8z M188.8,404c-2.8,0.6-5,1.5-6.7,2.9
		c-1.7,1.4-2.6,2.8-2.6,4.2c0,0.9,0.3,1.7,0.9,2.2c0.6,0.5,1.3,0.8,2.2,0.8c1.7,0,3.2-0.9,4.3-2.7
		C188.2,409.6,188.8,407.1,188.8,404z"/>
	<linearGradient id="SVGID_17_" gradientUnits="userSpaceOnUse" x1="197.4775" y1="405.9098" x2="220.5215" y2="405.9098">
		<stop  offset="0" style="stop-color:#A76821"/>
		<stop  offset="0.5" style="stop-color:#F2E58D"/>
		<stop  offset="1" style="stop-color:#A76821"/>
	</linearGradient>
	<path class="st18" d="M197.5,397.8l5.8-2.4h0.9v7.3c2.1-2.9,3.9-4.8,5.3-5.8c1.4-1,2.7-1.5,3.9-1.5c2.5,0,3.8,1.6,3.8,4.8v11.7
		c0,1.3,0.3,2.2,0.8,2.7c0.5,0.5,1.4,0.7,2.6,0.8v1.1h-7.7v-1.1c0.6,0,0.9-0.4,0.9-1.1v-13.7c0-0.8-0.2-1.4-0.6-1.9
		c-0.4-0.5-0.9-0.7-1.6-0.7c-1.9,0-3.6,1.3-5.2,4c-1.6,2.6-2.4,5.7-2.4,9.1c0,1.7,0.3,2.9,0.8,3.4c0.5,0.6,1.5,0.8,2.8,0.9v1.1
		h-10.1v-1.1c1.2,0,2.1-0.3,2.6-0.8c0.5-0.5,0.8-1.4,0.8-2.7v-11.4c0-1.5-0.5-2.2-1.5-2.2c-0.4,0-1,0.2-1.9,0.6V397.8z"/>
	<linearGradient id="SVGID_18_" gradientUnits="userSpaceOnUse" x1="220.5439" y1="411.2589" x2="242.5645" y2="411.2589">
		<stop  offset="0" style="stop-color:#A76821"/>
		<stop  offset="0.5" style="stop-color:#F2E58D"/>
		<stop  offset="1" style="stop-color:#A76821"/>
	</linearGradient>
	<path class="st19" d="M220.8,396h7.2v1.1c-0.6,0-0.8,0.2-0.8,0.5c0,0.2,0,0.4,0.1,0.6l5.5,13.7l2.2-5.8c1-2.6,1.5-4.8,1.5-6.5
		c0-0.9-0.3-1.5-0.8-1.9c-0.5-0.4-1.3-0.6-2.4-0.6V396h9.3v1.1c-0.9,0.1-1.7,0.4-2.2,0.9c-0.5,0.6-1.2,1.8-2,3.7l-7.6,19.8
		c-1.2,3-3.4,4.7-6.6,5l-3.6-4.2l1.2-1c1.2,1.5,2.5,2.2,3.9,2.2c0.8,0,1.5-0.2,2.1-0.7s1.1-1,1.4-1.7s0.8-1.8,1.5-3.6l0.4-0.9
		l-6.1-15.1c-0.7-1.6-1.3-2.8-1.9-3.4c-0.6-0.6-1.4-0.9-2.3-1V396z"/>
</g>
<g>
	<linearGradient id="SVGID_19_" gradientUnits="userSpaceOnUse" x1="244.1128" y1="390.9601" x2="256.8271" y2="390.9601">
		<stop  offset="0" style="stop-color:#A76821"/>
		<stop  offset="0.5" style="stop-color:#F2E58D"/>
		<stop  offset="1" style="stop-color:#A76821"/>
	</linearGradient>
	<path class="st20" d="M245.2,393.8v-0.2c0.4,0,0.6-0.1,0.7-0.2c0.1-0.1,0.2-0.4,0.2-1v-4h-0.7c-0.4,0-0.7,0.1-0.8,0.2
		c-0.2,0.1-0.3,0.4-0.3,0.8h-0.2v-1.3h4.8v1.3h-0.2c0-0.3-0.1-0.6-0.2-0.8c-0.1-0.2-0.4-0.2-0.9-0.2h-0.7v4c0,0.5,0.1,0.8,0.2,1
		c0.1,0.1,0.3,0.2,0.7,0.2v0.2H245.2z M249.4,388.1h1.7l2.1,4.5l2-4.5h1.6v0.2c-0.4,0-0.6,0.1-0.7,0.2c-0.1,0.1-0.1,0.3-0.1,0.7v3.4
		c0,0.4,0,0.7,0.1,0.8c0.1,0.1,0.3,0.2,0.7,0.2v0.2h-2.4v-0.2c0.4,0,0.6-0.1,0.7-0.2c0.1-0.1,0.1-0.4,0.1-0.8v-3.7l-2.2,4.9h-0.1
		l-2.3-4.8v3.6c0,0.4,0,0.7,0.1,0.8c0.1,0.1,0.3,0.2,0.7,0.2v0.2h-2v-0.2c0.4,0,0.6-0.1,0.7-0.2c0.1-0.1,0.1-0.4,0.1-0.8v-3.3
		c0-0.4,0-0.7-0.1-0.8c-0.1-0.1-0.3-0.2-0.7-0.2V388.1z"/>
</g>
<linearGradient id="SVGID_20_" gradientUnits="userSpaceOnUse" x1="242.5225" y1="390.4176" x2="259.5" y2="390.4176">
	<stop  offset="0" style="stop-color:#A76821"/>
	<stop  offset="0.5" style="stop-color:#F2E58D"/>
	<stop  offset="1" style="stop-color:#A76821"/>
</linearGradient>
<ellipse class="st21" cx="251" cy="390.4" rx="8" ry="7.6"/>
</svg>
